<svg t="1618096019960" class="icon" viewBox="0 0 1024 1024" version="1.1" xmlns="http://www.w3.org/2000/svg" p-id="2351" width="200" height="200"><path d="M733.013333 650.24c-5.12-6.826667-13.653333-8.533333-22.186666-8.533333s-15.36 1.706667-22.186667 8.533333c-5.12 5.12-8.533333 13.653333-8.533333 22.186667v40.96h63.146666v-40.96c0-8.533333-3.413333-17.066667-10.24-22.186667zM710.826667 800.426667c-8.533333 0-15.36 3.413333-22.186667 8.533333-5.12 6.826667-8.533333 13.653333-8.533333 22.186667v42.666666h63.146666v-42.666666c0-8.533333-3.413333-15.36-10.257066-22.186667-5.102933-5.12-13.636267-8.533333-22.1696-8.533333zM342.186667 672.426667c0-8.533333-1.723733-17.066667-8.533334-22.186667-5.12-6.826667-13.653333-8.533333-22.186666-8.533333s-15.36 1.706667-20.48 8.533333c-6.826667 5.12-8.533333 13.653333-8.533334 22.186667v40.96h59.733334v-40.96zM342.186667 831.146667c0-8.533333-1.723733-15.36-8.533334-22.186667-5.12-5.12-13.653333-8.533333-22.186666-8.533333s-15.36 3.413333-20.48 8.533333c-6.826667 6.826667-8.533333 13.653333-8.533334 22.186667v42.666666h59.733334v-42.666666z" fill="#006EFF" p-id="2352"></path><path d="M719.36 377.173333h-411.306667a17.066667 17.066667 0 0 1-17.066666-17.066666v-8.533334c0-61.44 21.0944-96.256 64.477866-141.5168 17.988267-16.401067 37.137067-32.477867 61.013334-44.424533 0.7168-0.3584 1.467733-0.6656 2.235733-0.9216 47.786667-15.940267 74.325333-43.332267 78.916267-81.425067a17.0496 17.0496 0 0 1 15.786666-14.984533 16.930133 16.930133 0 0 1 17.664 12.7488c10.496 40.465067 37.307733 68.642133 79.6672 83.780267 2.372267 0.853333 4.522667 2.2016 6.2976 3.976533 16.930133 9.335467 37.973333 22.4256 55.261867 41.6256 44.0832 44.049067 65.826133 78.933333 65.826133 141.124267 0 6.468267-0.750933 14.660267-6.7072 20.599466a16.9984 16.9984 0 0 1-12.066133 5.0176z m-394.069333-34.133333h378.538666c-1.8944-48.913067-20.360533-73.198933-56.2688-109.1072-15.104-16.7424-33.194667-27.716267-48.9984-36.334933a16.6912 16.6912 0 0 1-2.816-1.911467c-34.850133-13.175467-61.661867-34.491733-79.291733-62.685867-14.114133 24.32-39.850667 48.128-85.76 63.6928-19.712 10.052267-36.369067 24.098133-51.438933 37.802667-34.1504 35.703467-52.104533 60.023467-53.9648 108.544zM763.733333 484.693333h-501.76a17.066667 17.066667 0 0 1-17.066666-17.066666v-56.32a17.066667 17.066667 0 0 1 17.066666-17.066667h501.76a17.066667 17.066667 0 0 1 17.066667 17.066667v56.32a17.066667 17.066667 0 0 1-17.066667 17.066666z m-484.693333-34.133333h467.626667v-22.186667h-467.626667v22.186667zM804.693333 955.733333h-179.2a17.066667 17.066667 0 0 1 0-34.133333h163.84V535.893333h-554.666666V921.6h168.96a17.066667 17.066667 0 0 1 0 34.133333h-184.32a17.015467 17.015467 0 0 1-12.066134-5.000533l-1.706666-1.706667a17.066667 17.066667 0 0 1-5.000534-12.066133V522.24c0-7.918933 4.693333-13.4656 6.7072-15.479467a17.066667 17.066667 0 0 1 12.066134-5.000533h585.386666c6.485333 0 18.773333 4.283733 18.773334 20.48v414.72c0 10.3424-8.430933 18.773333-18.773334 18.773333z" fill="#006EFF" p-id="2353"></path><path d="M743.253333 730.453333h-63.146666a17.066667 17.066667 0 0 1-17.066667-17.066666v-40.96c0-12.970667 5.051733-25.770667 13.533867-34.2528 11.997867-11.997867 24.593067-13.533867 34.2528-13.533867 15.086933 0 26.624 4.522667 34.286933 13.448533 9.5744 8.123733 15.2064 20.770133 15.2064 34.338134v40.96a17.066667 17.066667 0 0 1-17.066667 17.066666z m-46.08-34.133333h29.013334v-23.893333c0-3.618133-1.348267-6.9632-3.413334-8.533334a17.186133 17.186133 0 0 1-3.4304-3.4304c-0.477867-0.631467-2.798933-1.706667-8.533333-1.706666-5.632 0-7.4752 0.887467-10.120533 3.5328-1.706667 1.723733-3.5328 5.8368-3.5328 10.120533V696.32zM743.253333 890.88h-63.146666a17.066667 17.066667 0 0 1-17.066667-17.066667v-42.666666c0-14.779733 6.8096-25.6 11.946667-32.426667 0.9728-1.297067 2.133333-2.4576 3.4304-3.4304 6.826667-5.12 17.629867-11.946667 32.4096-11.946667 12.970667 0 25.770667 5.051733 34.2528 13.533867 10.257067 10.24 15.2576 21.4528 15.2576 34.2528v42.666667A17.083733 17.083733 0 0 1 743.253333 890.88z m-46.08-34.133333h29.013334v-25.6c0-2.474667-0.4096-5.290667-5.239467-10.120534-1.723733-1.706667-5.853867-3.5328-10.120533-3.5328-2.696533 0-5.4784 0.6656-9.949867 3.703467-3.037867 4.471467-3.703467 7.2704-3.703467 9.949867v25.6zM625.493333 955.733333a17.066667 17.066667 0 0 1-17.066666-17.066666v-136.533334c0-27.272533-9.0624-49.476267-26.9312-65.962666-17.4592-18.8416-39.662933-27.904-66.935467-27.904-26.606933 0-47.7184 8.721067-66.440533 27.426133A92.125867 92.125867 0 0 0 420.693333 802.133333v136.533334a17.066667 17.066667 0 0 1-34.133333 0v-136.533334c0-34.269867 13.294933-66.440533 37.4272-90.5728 25.1904-25.1904 54.801067-37.4272 90.5728-37.4272 36.6592 0 68.164267 13.1072 91.050667 37.922134 23.842133 21.930667 36.949333 53.418667 36.949333 90.077866v136.533334a17.066667 17.066667 0 0 1-17.066667 17.066666z" fill="#006EFF" p-id="2354"></path><path d="M625.493333 955.733333h-221.866666a17.066667 17.066667 0 0 1 0-34.133333h221.866666a17.066667 17.066667 0 0 1 0 34.133333zM342.186667 730.453333h-59.733334a17.066667 17.066667 0 0 1-17.066666-17.066666v-40.96c0-15.086933 4.522667-26.606933 13.4144-34.269867 10.171733-12.066133 23.415467-13.5168 32.6656-13.5168 15.104 0 26.641067 4.522667 34.321066 13.4656 8.942933 7.68 13.4656 19.217067 13.4656 34.321067v40.96a17.066667 17.066667 0 0 1-17.066666 17.066666z m-42.666667-34.133333h25.6v-23.893333c0-5.717333-1.0752-8.055467-1.706667-8.533334a17.408 17.408 0 0 1-3.413333-3.396266c-0.477867-0.648533-2.816-1.723733-8.533333-1.723734-5.546667 0-6.1952 0.8704-6.8096 1.706667a17.186133 17.186133 0 0 1-3.4304 3.4304c-0.631467 0.477867-1.706667 2.798933-1.706667 8.533333V696.32zM342.186667 890.88h-59.733334a17.066667 17.066667 0 0 1-17.066666-17.066667v-42.666666c0-9.659733 1.536-22.289067 13.533866-34.269867a45.141333 45.141333 0 0 1 32.529067-13.5168c12.970667 0 25.770667 5.051733 34.2528 13.5168 12.014933 12.014933 13.533867 24.6272 13.533867 34.269867v42.666666a17.032533 17.032533 0 0 1-17.0496 17.066667z m-42.666667-34.133333h25.6v-25.6c0-5.632-0.887467-7.4752-3.549867-10.1376-3.037867-3.0208-13.0048-5.495467-18.517333 0-2.645333 2.645333-3.5328 4.488533-3.5328 10.120533V856.746667z" fill="#006EFF" p-id="2355"></path></svg>